<?xml version="1.0" standalone="no"?>
<!DOCTYPE svg PUBLIC "-//W3C//DTD SVG 20010904//EN"
 "http://www.w3.org/TR/2001/REC-SVG-20010904/DTD/svg10.dtd">
<svg version="1.0" xmlns="http://www.w3.org/2000/svg"
 width="300.000000pt" height="102.000000pt" viewBox="0 0 300.000000 102.000000"
 preserveAspectRatio="xMidYMid meet">
<metadata>
Created by potrace 1.10, written by Peter Selinger 2001-2011
</metadata>
<g transform="translate(0.000000,102.000000) scale(0.100000,-0.100000)"
fill="#6600ff" stroke="none">
<path d="M1955 849 c-153 -51 -296 -141 -398 -247 -54 -57 -107 -147 -107
-183 0 -9 -11 -21 -25 -27 -35 -16 -36 -16 -29 13 5 21 3 25 -14 25 -12 0 -24
-4 -27 -10 -10 -16 -25 -12 -19 5 12 31 -13 14 -29 -20 -26 -54 -21 -60 20
-26 45 38 52 38 45 6 -3 -20 0 -25 15 -25 10 0 29 7 41 16 21 14 22 14 22 -6
0 -34 28 -78 60 -95 81 -42 195 -2 298 103 67 69 73 70 39 5 -18 -33 -36 -49
-92 -78 -109 -56 -175 -129 -175 -193 0 -34 16 -52 47 -52 61 0 117 58 188
193 22 42 47 77 55 77 10 0 11 3 3 11 -7 7 1 39 28 107 49 127 55 152 36 152
-8 0 -24 -22 -35 -49 -29 -67 -106 -166 -165 -212 -27 -21 -73 -46 -102 -54
-47 -14 -58 -14 -88 -2 -19 8 -42 25 -51 38 -23 33 -21 113 4 164 73 151 343
331 561 375 59 11 97 4 131 -27 20 -18 24 -73 8 -103 -7 -13 -7 -21 0 -25 6
-4 18 11 26 31 21 51 6 107 -36 129 -47 24 -134 18 -235 -16z m-74 -392 c-10
-9 -11 -8 -5 6 3 10 9 15 12 12 3 -3 0 -11 -7 -18z m-71 -152 c0 -3 -10 -25
-21 -48 -37 -72 -97 -152 -130 -171 -28 -16 -33 -17 -46 -3 -22 22 -9 67 34
116 51 61 163 133 163 106z"/>
<path d="M1035 854 c-128 -23 -356 -82 -480 -124 -132 -46 -296 -120 -278
-127 6 -2 38 9 70 25 143 73 434 162 657 202 112 20 246 27 246 12 0 -26 -116
-99 -230 -144 -75 -30 -120 -57 -70 -43 133 38 330 149 330 185 0 32 -109 38
-245 14z"/>
<path d="M674 705 c-6 -11 -30 -72 -54 -136 -46 -127 -45 -126 -134 -131 -17
-1 -5 -4 26 -7 l56 -6 -43 -105 c-24 -57 -48 -106 -54 -108 -6 -2 10 42 35 98
25 57 42 105 40 108 -8 8 -69 -128 -110 -246 -42 -120 -40 -112 -22 -112 16 0
45 57 122 240 59 139 56 136 162 139 28 0 52 4 52 9 0 4 -34 6 -77 4 -71 -4
-76 -3 -69 14 58 148 86 230 84 243 -3 13 -6 13 -14 -4z"/>
<path d="M2153 580 c-16 -36 -38 -87 -48 -115 -17 -48 -46 -85 -67 -85 -6 0
-8 9 -5 20 7 26 -11 25 -40 -2 -31 -29 -42 -14 -12 18 14 15 31 23 42 20 11
-3 17 0 14 7 -8 24 -35 17 -72 -17 -20 -19 -35 -41 -33 -48 7 -19 43 -21 58
-3 11 14 14 14 25 -2 11 -14 17 -15 39 -5 16 7 28 8 31 2 9 -15 48 -12 72 5
19 13 22 13 27 0 7 -19 50 -19 66 0 11 13 14 13 27 -1 11 -10 29 -14 60 -11
36 3 49 10 74 40 17 20 37 37 45 37 8 0 12 -4 9 -10 -3 -5 -1 -10 4 -10 10 0
14 12 9 27 -2 4 -18 8 -36 9 -27 1 -36 -5 -48 -27 -25 -49 -104 -74 -104 -33
0 7 6 11 14 8 19 -7 56 13 56 31 0 26 -49 17 -78 -14 -15 -16 -37 -34 -50 -40
-39 -21 -36 11 13 134 26 64 45 119 41 122 -9 10 -11 6 -59 -112 -35 -86 -52
-115 -77 -132 -18 -13 -37 -20 -42 -17 -11 7 -6 23 43 148 45 112 46 154 2 56z
m187 -149 c0 -5 -7 -11 -15 -15 -15 -5 -20 5 -8 17 9 10 23 9 23 -2z"/>
<path d="M1030 519 c-37 -82 -50 -103 -75 -113 -36 -16 -45 -12 -45 19 0 19 4
22 23 18 17 -5 19 -3 11 7 -20 21 -49 8 -52 -25 -4 -35 -18 -55 -39 -55 -10 0
-14 7 -10 20 3 12 0 20 -7 20 -7 0 -22 -9 -34 -20 -34 -32 -49 -23 -16 11 17
18 36 28 46 25 22 -5 24 12 3 20 -34 13 -110 -65 -86 -89 9 -9 19 -8 41 5 17
9 30 13 30 8 0 -6 10 -10 22 -10 17 0 19 -3 10 -12 -22 -22 -13 -38 19 -38 47
0 70 16 63 45 -4 17 0 26 15 35 23 12 28 1 9 -18 -6 -6 -8 -15 -4 -19 4 -5 22
8 39 28 18 19 41 42 51 50 18 13 19 12 12 -24 -7 -38 -7 -38 21 -35 16 2 33
-3 39 -11 9 -11 17 -12 43 -3 24 8 39 9 53 1 22 -12 60 8 78 41 27 51 -36 55
-91 5 -22 -19 -46 -35 -54 -35 -14 0 -14 3 0 30 12 23 13 30 3 30 -7 0 -19 -9
-26 -20 -20 -33 -42 -25 -42 15 0 39 -13 44 -48 19 -12 -8 -22 -13 -22 -11 0
2 15 35 34 73 39 82 50 114 39 114 -5 0 -29 -45 -53 -101z m240 -120 c-6 -10
-12 -19 -15 -19 -2 0 -10 -3 -19 -6 -24 -9 -20 22 6 40 27 19 41 11 28 -15z
m-360 -48 c0 -12 -9 -20 -25 -23 -31 -6 -32 5 -2 25 28 20 27 20 27 -2z"/>
<path d="M2520 480 c-6 -11 -7 -20 -2 -20 10 0 32 21 32 32 0 16 -19 8 -30
-12z"/>
<path d="M1162 478 c-14 -14 -16 -28 -2 -28 5 0 14 9 20 20 12 22 1 27 -18 8z"/>
<path d="M2565 420 c-61 -52 -83 -52 -54 2 9 16 8 19 -3 16 -7 -3 -17 -17 -22
-31 -13 -37 4 -55 38 -40 14 7 27 8 33 2 5 -5 21 -2 38 7 19 10 31 11 33 5 2
-6 12 -11 22 -11 23 0 68 36 57 46 -4 4 -18 -3 -31 -15 -25 -23 -41 -16 -30
13 9 23 -4 20 -43 -10 -18 -14 -33 -21 -33 -16 0 15 45 52 63 52 9 0 17 5 17
10 0 22 -41 8 -85 -30z"/>
</g>
</svg>
